<svg width="24" height="24" viewBox="0 0 24 24" fill="none" xmlns="http://www.w3.org/2000/svg">
<path d="M3.503 6.726C5.268 3.89 8.414 2 11.998 2C17.516 2 21.995 6.48 21.995 11.997C21.995 17.516 17.516 21.996 11.998 21.996C6.753 21.996 2.445 17.948 2.032 12.808C2.008 12.506 2.221 11.997 2.781 11.997C3.172 11.997 3.496 12.297 3.528 12.687C3.879 17.056 7.54 20.496 11.998 20.496C16.688 20.496 20.495 16.688 20.495 11.997C20.495 7.308 16.688 3.5 11.998 3.5C8.961 3.5 6.294 5.097 4.792 7.495L6.783 7.5C7.197 7.5 7.533 7.836 7.533 8.25C7.533 8.664 7.197 9 6.783 9H2.75C2.336 9 2 8.664 2 8.25V4.201C2 3.787 2.336 3.451 2.75 3.451C3.164 3.451 3.5 3.786 3.5 4.201L3.503 6.726Z" fill="black"/>
</svg>
