<svg width="24" height="24" viewBox="0 0 24 24" fill="none" xmlns="http://www.w3.org/2000/svg">
<path d="M20.492 6.73381C18.727 3.89781 15.581 2.00781 11.997 2.00781C6.479 2.00781 2 6.48781 2 12.0048C2 17.5238 6.479 22.0038 11.997 22.0038C17.242 22.0038 21.55 17.9558 21.963 12.8158C21.987 12.5138 21.774 12.0048 21.214 12.0048C20.823 12.0048 20.499 12.3048 20.467 12.6948C20.116 17.0638 16.455 20.5038 11.997 20.5038C7.307 20.5038 3.5 16.6958 3.5 12.0048C3.5 7.31581 7.307 3.50781 11.997 3.50781C15.034 3.50781 17.701 5.10481 19.203 7.50281L17.212 7.50781C16.798 7.50781 16.462 7.84381 16.462 8.25781C16.462 8.67181 16.798 9.00781 17.212 9.00781H21.245C21.659 9.00781 21.995 8.67181 21.995 8.25781V4.20881C21.995 3.79481 21.659 3.45881 21.245 3.45881C20.831 3.45881 20.495 3.79381 20.495 4.20881L20.492 6.73381Z" fill="black"/>
</svg>
