<svg width="30" height="30" viewBox="0 0 30 30" fill="none" xmlns="http://www.w3.org/2000/svg">
<path d="M8.4375 6.5625C5.34301 6.5625 2.8125 9.09301 2.8125 12.1875C2.8125 14.0479 3.72803 15.7031 5.12695 16.7285C2.65503 17.9554 0.9375 20.4969 0.9375 23.4375H2.8125C2.8125 20.321 5.32105 17.8125 8.4375 17.8125C11.554 17.8125 14.0625 20.321 14.0625 23.4375H15.9375C15.9375 20.321 18.446 17.8125 21.5625 17.8125C24.679 17.8125 27.1875 20.321 27.1875 23.4375H29.0625C29.0625 20.4969 27.345 17.9554 24.873 16.7285C26.272 15.7031 27.1875 14.0479 27.1875 12.1875C27.1875 9.09301 24.657 6.5625 21.5625 6.5625C18.468 6.5625 15.9375 9.09301 15.9375 12.1875C15.9375 14.0479 16.853 15.7031 18.252 16.7285C16.886 17.406 15.7397 18.4754 15 19.8047C14.2603 18.4754 13.114 17.406 11.7481 16.7285C13.147 15.7031 14.0625 14.0479 14.0625 12.1875C14.0625 9.09301 11.532 6.5625 8.4375 6.5625ZM8.4375 8.4375C10.5212 8.4375 12.1875 10.1038 12.1875 12.1875C12.1875 14.2713 10.5212 15.9375 8.4375 15.9375C6.35376 15.9375 4.6875 14.2713 4.6875 12.1875C4.6875 10.1038 6.35376 8.4375 8.4375 8.4375ZM21.5625 8.4375C23.6463 8.4375 25.3125 10.1038 25.3125 12.1875C25.3125 14.2713 23.6463 15.9375 21.5625 15.9375C19.4787 15.9375 17.8125 14.2713 17.8125 12.1875C17.8125 10.1038 19.4787 8.4375 21.5625 8.4375Z" fill="#8A8A88"/>
</svg>
