<svg width="2" height="10" viewBox="0 0 2 10" fill="none" xmlns="http://www.w3.org/2000/svg">
<path d="M1 2C1.5523 2 2 1.55228 2 1C2 0.44772 1.5523 0 1 0C0.4477 0 0 0.44772 0 1C0 1.55228 0.4477 2 1 2Z" fill="white"/>
<path d="M1 3C0.7348 3 0.4804 3.1054 0.2929 3.2929C0.1054 3.4804 0 3.7348 0 4V9C0 9.2652 0.1054 9.5196 0.2929 9.7071C0.4804 9.8946 0.7348 10 1 10C1.2652 10 1.5196 9.8946 1.7071 9.7071C1.8946 9.5196 2 9.2652 2 9V4C2 3.7348 1.8946 3.4804 1.7071 3.2929C1.5196 3.1054 1.2652 3 1 3Z" fill="white"/>
</svg>
