<svg width="30" height="30" viewBox="0 0 30 30" fill="none" xmlns="http://www.w3.org/2000/svg">
<g clip-path="url(#clip0_225_33)">
<mask id="mask0_225_33" style="mask-type:luminance" maskUnits="userSpaceOnUse" x="0" y="0" width="30" height="30">
<path d="M30 0L0 0L0 30H30V0Z" fill="white"/>
</mask>
<g mask="url(#mask0_225_33)">
<path d="M15.0544 3.82256C15.7173 3.82271 16.3531 4.08603 16.8218 4.55477C17.2905 5.02352 17.5539 5.65932 17.554 6.32219C18.9898 7.00087 20.2138 8.05759 21.0948 9.37896C21.9758 10.7003 22.4806 12.2365 22.5551 13.8229L22.5533 17.5723C22.6473 18.3495 22.9226 19.0938 23.3569 19.7452C23.7912 20.3966 24.3725 20.9369 25.0538 21.3226L5.05589 21.3235C5.73693 20.9377 6.3179 20.3975 6.75205 19.7463C7.1862 19.0951 7.4614 18.351 7.55551 17.574L7.55374 13.8228C7.62819 12.2364 8.13291 10.7003 9.01398 9.37889C9.89495 8.05757 11.119 7.00085 12.5548 6.32219C12.5548 5.65933 12.8183 5.02352 13.287 4.5548C13.7557 4.08608 14.3914 3.82271 15.0544 3.82256Z" stroke="#ffffff" stroke-width="2" stroke-linecap="round" stroke-linejoin="round"/>
<path d="M11.1887 21.5368L11.1887 22.7867C11.1887 23.7813 11.5838 24.7351 12.2872 25.4385C12.9905 26.1418 13.9444 26.5369 14.9391 26.537C15.9336 26.5369 16.8876 26.1418 17.5909 25.4385C18.2942 24.7352 18.6893 23.7813 18.6894 22.7866L18.6894 21.5368" stroke="#ffffff" stroke-width="2" stroke-linecap="round" stroke-linejoin="round"/>
</g>
</g>
<defs>
<clipPath id="clip0_225_33">
<rect width="30" height="30" fill="white"/>
</clipPath>
</defs>
</svg>
