<svg width="28" height="28" viewBox="0 0 28 28" fill="none" xmlns="http://www.w3.org/2000/svg">
<mask id="mask0_469_38" style="mask-type:luminance" maskUnits="userSpaceOnUse" x="4" y="4" width="20" height="20">
<path d="M24 4H4V24H24V4Z" fill="white"/>
</mask>
<g mask="url(#mask0_469_38)">
<path d="M23.6 14.2274C23.6 13.5183 23.5364 12.8365 23.4182 12.1819H14V16.0501H19.3818C19.15 17.3001 18.4455 18.3592 17.3864 19.0683V21.5774H20.6182C22.5091 19.8365 23.6 17.2728 23.6 14.2274Z" fill="#4285F4"/>
<path d="M14.0001 23.9999C16.7001 23.9999 18.9637 23.1044 20.6182 21.5772L17.3864 19.0681C16.491 19.6681 15.3455 20.0226 14.0001 20.0226C11.3955 20.0226 9.19102 18.2635 8.40462 15.8999H5.06372V18.4908C6.70922 21.759 10.091 23.9999 14.0001 23.9999Z" fill="#34A853"/>
<path d="M8.4045 15.8999C8.2045 15.2999 8.0909 14.659 8.0909 13.9999C8.0909 13.3408 8.2045 12.6999 8.4045 12.0999V9.50903H5.0636C4.3864 10.859 4 12.3863 4 13.9999C4 15.6135 4.3864 17.1408 5.0636 18.4908L8.4045 15.8999Z" fill="#FBBC04"/>
<path d="M14.0001 7.9773C15.4682 7.9773 16.7864 8.4818 17.8228 9.4727L20.691 6.6045C18.9592 4.9909 16.6955 4 14.0001 4C10.091 4 6.70922 6.2409 5.06372 9.5091L8.40462 12.1C9.19102 9.7364 11.3955 7.9773 14.0001 7.9773Z" fill="#E94235"/>
</g>
</svg>
