<svg xmlns="http://www.w3.org/2000/svg" width="24" height="24" viewBox="0 0 24 24" color="#9aa0a6" fill="none" stroke="currentColor" stroke-width="1.8" stroke-linecap="round" stroke-linejoin="round"><path d="M19 12a7 7 0 0 0-.1-1l2-1.5-2-3.4-2.3 1a7 7 0 0 0-1.7-1l-.3-2.5h-4l-.3 2.5a7 7 0 0 0-1.7 1l-2.3-1-2 3.4 2 1.5a7 7 0 0 0 0 2l-2 1.5 2 3.4 2.3-1a7 7 0 0 0 1.7 1l.3 2.5h4l.3-2.5a7 7 0 0 0 1.7-1l2.3 1 2-3.4-2-1.5a7 7 0 0 0 .1-1Z" fill="currentColor" fill-opacity="0.14"/><circle cx="12" cy="12" r="3"/></svg>
