<svg xmlns="http://www.w3.org/2000/svg" width="24" height="24" viewBox="0 0 24 24" color="#a78bfa" fill="none" stroke="currentColor" stroke-width="1.8" stroke-linecap="round" stroke-linejoin="round"><path d="M3 7c0-1 .6-1.5 1.6-1.5H11c1 0 1.6.5 1.6 1.5 0 4-2 7.5-4.8 7.5S3 11 3 7Z" fill="currentColor" fill-opacity="0.16"/><path d="M11.5 6.2c.7-.5 1.6-.7 2.9-.7H20c1 0 1.6.5 1.6 1.5 0 4-2 7.5-4.8 7.5-1.4 0-2.4-.8-3.2-2" fill="currentColor" fill-opacity="0.10"/><path d="M6 9h.01M9.6 9h.01M6.4 12c.7.6 2 .6 2.7 0"/></svg>
