<svg width="24" height="24" viewBox="0 0 24 24" fill="none" xmlns="http://www.w3.org/2000/svg">
<path d="M10.0001 21H14.0001C14.0001 21.5304 13.7894 22.0391 13.4143 22.4142C13.0393 22.7893 12.5305 23 12.0001 23C11.4697 23 10.961 22.7893 10.5859 22.4142C10.2108 22.0391 10.0001 21.5304 10.0001 21ZM3.07612 18.383C3.00041 18.2002 2.98062 17.9991 3.01925 17.8051C3.05787 17.6111 3.15318 17.4328 3.29312 17.293L5.00012 15.586V10C5.00333 8.3185 5.61121 6.69424 6.71276 5.42379C7.8143 4.15334 9.33604 3.32145 11.0001 3.08V2C11.0001 1.73478 11.1055 1.48043 11.293 1.29289C11.4805 1.10536 11.7349 1 12.0001 1C12.2653 1 12.5197 1.10536 12.7072 1.29289C12.8948 1.48043 13.0001 1.73478 13.0001 2V3.08C14.6642 3.32145 16.1859 4.15334 17.2875 5.42379C18.389 6.69424 18.9969 8.3185 19.0001 10V15.586L20.7071 17.293C20.8469 17.4329 20.9421 17.611 20.9807 17.805C21.0193 17.9989 20.9995 18.2 20.9238 18.3827C20.8481 18.5654 20.72 18.7215 20.5556 18.8314C20.3912 18.9413 20.1979 19 20.0001 19H4.00012C3.80235 19 3.60901 18.9415 3.44454 18.8316C3.28007 18.7218 3.15186 18.5657 3.07612 18.383ZM6.41412 17H17.5861L17.2931 16.707C17.1056 16.5195 17.0002 16.2652 17.0001 16V10C17.0001 8.67392 16.4733 7.40215 15.5357 6.46447C14.598 5.52678 13.3262 5 12.0001 5C10.674 5 9.40226 5.52678 8.46458 6.46447C7.5269 7.40215 7.00012 8.67392 7.00012 10V16C7.00006 16.2652 6.89467 16.5195 6.70712 16.707L6.41412 17Z" fill="black"/>
</svg>
