<svg width="24" height="24" viewBox="0 0 24 24" fill="none" xmlns="http://www.w3.org/2000/svg">
<path d="M12.5518 8C11.9996 8 11.5518 8.44772 11.5518 9C11.5518 9.55228 11.9996 10 12.5518 10H16.5518C17.1041 10 17.5518 9.55228 17.5518 9C17.5518 8.44772 17.1041 8 16.5518 8H12.5518Z" fill="#8A8A88" fill-opacity="0.5"/>
<path d="M12.5518 17C11.9996 17 11.5518 17.4477 11.5518 18C11.5518 18.5523 11.9996 19 12.5518 19H16.5518C17.1041 19 17.5518 18.5523 17.5518 18C17.5518 17.4477 17.1041 17 16.5518 17H12.5518Z" fill="#8A8A88" fill-opacity="0.5"/>
<path d="M12.5518 5C11.9996 5 11.5518 5.44772 11.5518 6C11.5518 6.55228 11.9996 7 12.5518 7H20.5518C21.1041 7 21.5518 6.55228 21.5518 6C21.5518 5.44772 21.1041 5 20.5518 5H12.5518Z" fill="#8A8A88" fill-opacity="0.8"/>
<path d="M12.5518 14C11.9996 14 11.5518 14.4477 11.5518 15C11.5518 15.5523 11.9996 16 12.5518 16H20.5518C21.1041 16 21.5518 15.5523 21.5518 15C21.5518 14.4477 21.1041 14 20.5518 14H12.5518Z" fill="#8A8A88" fill-opacity="0.8"/>
<path d="M3.14286 4C2.51168 4 2 4.44772 2 4.99999V10C2 10.5522 2.51168 11 3.14286 11H8.85714C9.48833 11 10 10.5522 10 10V4.99999C10 4.44772 9.48833 4 8.85714 4H3.14286Z" fill="#8A8A88"/>
<path d="M3.14286 13C2.51168 13 2 13.4477 2 14V19C2 19.5523 2.51168 20 3.14286 20H8.85714C9.48833 20 10 19.5523 10 19V14C10 13.4477 9.48833 13 8.85714 13H3.14286Z" fill="#8A8A88"/>
</svg>
