<svg width="30" height="30" viewBox="0 0 30 30" fill="none" xmlns="http://www.w3.org/2000/svg">
<path d="M15 3.75C8.7868 3.75 3.75 8.7868 3.75 15C3.75 18.4375 5.3125 21.5 7.5 23.4375V25C7.5 25.6904 8.05964 26.25 8.75 26.25H11.25V23.75H13.75V26.25H16.25V23.75H18.75V26.25H21.25C21.9404 26.25 22.5 25.6904 22.5 25V23.4375C24.6875 21.5 26.25 18.4375 26.25 15C26.25 8.7868 21.2132 3.75 15 3.75Z" stroke="#8A8A88" stroke-width="2" stroke-linecap="round" stroke-linejoin="round"/>
<path d="M10.625 16.25C11.6605 16.25 12.5 15.4105 12.5 14.375C12.5 13.3395 11.6605 12.5 10.625 12.5C9.58947 12.5 8.75 13.3395 8.75 14.375C8.75 15.4105 9.58947 16.25 10.625 16.25Z" stroke="#8A8A88" stroke-width="2"/>
<path d="M19.375 16.25C20.4105 16.25 21.25 15.4105 21.25 14.375C21.25 13.3395 20.4105 12.5 19.375 12.5C18.3395 12.5 17.5 13.3395 17.5 14.375C17.5 15.4105 18.3395 16.25 19.375 16.25Z" stroke="#8A8A88" stroke-width="2"/>
</svg>
