<svg width="30" height="30" viewBox="0 0 30 30" fill="none" xmlns="http://www.w3.org/2000/svg">
<path d="M3.75 8.75C3.75 8.05964 4.30964 7.5 5 7.5H10L11.25 5H18.75L20 7.5H25C25.6904 7.5 26.25 8.05964 26.25 8.75V23.75C26.25 24.4404 25.6904 25 25 25H5C4.30964 25 3.75 24.4404 3.75 23.75V8.75Z" stroke="#8A8A88" stroke-width="2" stroke-linecap="round" stroke-linejoin="round"/>
<path d="M15 21.25C17.7614 21.25 20 19.0114 20 16.25C20 13.4886 17.7614 11.25 15 11.25C12.2386 11.25 10 13.4886 10 16.25C10 19.0114 12.2386 21.25 15 21.25Z" stroke="#8A8A88" stroke-width="2" stroke-linecap="round" stroke-linejoin="round"/>
</svg>
