<svg width="30" height="30" viewBox="0 0 30 30" fill="none" xmlns="http://www.w3.org/2000/svg">
<path d="M5 6.25C5 6.25 8.75 5 11.875 5C15 5 16.25 6.25 16.25 6.25V15C16.25 18.45 13.45 21.25 10 21.25C6.55 21.25 5 18.45 5 15V6.25Z" stroke="#8A8A88" stroke-width="2" stroke-linecap="round" stroke-linejoin="round"/>
<path d="M8.125 11.875C8.125 11.875 8.75 11.25 9.375 11.25" stroke="#8A8A88" stroke-width="2" stroke-linecap="round"/>
<path d="M13.125 11.875C13.125 11.875 12.5 11.25 11.875 11.25" stroke="#8A8A88" stroke-width="2" stroke-linecap="round"/>
<path d="M8.75 16.875C8.75 16.875 9.375 17.5 10.625 17.5C11.875 17.5 12.5 16.875 12.5 16.875" stroke="#8A8A88" stroke-width="2" stroke-linecap="round"/>
<path d="M13.75 9.375C16.25 9.375 20 8.75 25 8.75V17.5C25 20.95 22.2 23.75 18.75 23.75C15.3 23.75 13.75 20.95 13.75 17.5" stroke="#8A8A88" stroke-width="2" stroke-linecap="round" stroke-linejoin="round"/>
<path d="M17.5 15C17.5 15 18.125 14.375 18.75 14.375" stroke="#8A8A88" stroke-width="2" stroke-linecap="round"/>
<path d="M21.875 15C21.875 15 21.25 14.375 20.625 14.375" stroke="#8A8A88" stroke-width="2" stroke-linecap="round"/>
<path d="M17.5 18.75C17.5 18.75 18.75 20 20 20C21.25 20 22.5 18.75 22.5 18.75" stroke="#8A8A88" stroke-width="2" stroke-linecap="round"/>
</svg>
