<svg width="30" height="30" viewBox="0 0 30 30" fill="none" xmlns="http://www.w3.org/2000/svg">
<path d="M15 3.75C15 3.75 21.25 6.25 21.25 13.75C21.25 16.25 20.625 18.125 20 19.375L15 22.5L10 19.375C9.375 18.125 8.75 16.25 8.75 13.75C8.75 6.25 15 3.75 15 3.75Z" stroke="#8A8A88" stroke-width="2" stroke-linecap="round" stroke-linejoin="round"/>
<path d="M15 15C16.0355 15 16.875 14.1605 16.875 13.125C16.875 12.0895 16.0355 11.25 15 11.25C13.9645 11.25 13.125 12.0895 13.125 13.125C13.125 14.1605 13.9645 15 15 15Z" stroke="#8A8A88" stroke-width="2"/>
<path d="M10 19.375L7.5 23.75L11.875 22.5" stroke="#8A8A88" stroke-width="2" stroke-linecap="round" stroke-linejoin="round"/>
<path d="M20 19.375L22.5 23.75L18.125 22.5" stroke="#8A8A88" stroke-width="2" stroke-linecap="round" stroke-linejoin="round"/>
<path d="M13.125 24.375L15 26.875L16.875 24.375" stroke="#8A8A88" stroke-width="2" stroke-linecap="round" stroke-linejoin="round"/>
</svg>
