<svg width="30" height="30" viewBox="0 0 30 30" fill="none" xmlns="http://www.w3.org/2000/svg">
<path d="M11.875 21.875C11.875 21.875 4.375 17.5 4.375 11.875C4.375 9.46875 6.34375 7.5 8.75 7.5C10.25 7.5 11.5625 8.21875 12.5 9.375C13.4375 8.21875 14.75 7.5 16.25 7.5" stroke="#8A8A88" stroke-width="2" stroke-linecap="round" stroke-linejoin="round"/>
<path d="M18.125 22.5C18.125 22.5 25.625 18.125 25.625 12.5C25.625 10.0938 23.6562 8.125 21.25 8.125C19.75 8.125 18.4375 8.84375 17.5 10C16.5625 8.84375 15.25 8.125 13.75 8.125C11.3438 8.125 9.375 10.0938 9.375 12.5C9.375 18.125 18.125 22.5 18.125 22.5Z" stroke="#8A8A88" stroke-width="2" stroke-linecap="round" stroke-linejoin="round"/>
</svg>
