<svg width="30" height="30" viewBox="0 0 30 30" fill="none" xmlns="http://www.w3.org/2000/svg">
<g clip-path="url(#clip0_696_13)">
<mask id="mask0_696_13" style="mask-type:luminance" maskUnits="userSpaceOnUse" x="0" y="0" width="30" height="30">
<path d="M30 0H0V30H30V0Z" fill="white"/>
</mask>
<g mask="url(#mask0_696_13)">
<path d="M15 27.5C21.9036 27.5 27.5 21.9036 27.5 15C27.5 8.09644 21.9036 2.5 15 2.5C8.09644 2.5 2.5 8.09644 2.5 15C2.5 21.9036 8.09644 27.5 15 27.5Z" stroke="#8A8A88" stroke-width="2" stroke-linejoin="round"/>
<path d="M15 11.25C16.0356 11.25 16.875 10.4106 16.875 9.375C16.875 8.33944 16.0356 7.5 15 7.5C13.9644 7.5 13.125 8.33944 13.125 9.375C13.125 10.4106 13.9644 11.25 15 11.25Z" stroke="#8A8A88" stroke-width="2" stroke-linejoin="round"/>
<path d="M15 22.5C16.0356 22.5 16.875 21.6606 16.875 20.625C16.875 19.5894 16.0356 18.75 15 18.75C13.9644 18.75 13.125 19.5894 13.125 20.625C13.125 21.6606 13.9644 22.5 15 22.5Z" stroke="#8A8A88" stroke-width="2" stroke-linejoin="round"/>
<path d="M9.375 16.875C10.4106 16.875 11.25 16.0356 11.25 15C11.25 13.9644 10.4106 13.125 9.375 13.125C8.33944 13.125 7.5 13.9644 7.5 15C7.5 16.0356 8.33944 16.875 9.375 16.875Z" stroke="#8A8A88" stroke-width="2" stroke-linejoin="round"/>
<path d="M20.625 16.875C21.6606 16.875 22.5 16.0356 22.5 15C22.5 13.9644 21.6606 13.125 20.625 13.125C19.5894 13.125 18.75 13.9644 18.75 15C18.75 16.0356 19.5894 16.875 20.625 16.875Z" stroke="#8A8A88" stroke-width="2" stroke-linejoin="round"/>
<path d="M15 27.5H27.5" stroke="#8A8A88" stroke-width="2" stroke-linecap="round"/>
</g>
</g>
<defs>
<clipPath id="clip0_696_13">
<rect width="30" height="30" fill="white"/>
</clipPath>
</defs>
</svg>
