<svg width="30" height="30" viewBox="0 0 30 30" fill="none" xmlns="http://www.w3.org/2000/svg">
<path d="M23.6171 13.8244L9.21735 5.11618C9.09606 5.04283 8.95722 5.00278 8.8151 5.00014C8.67298 4.99751 8.53272 5.03239 8.40874 5.10119C8.28476 5.17 8.18154 5.27023 8.1097 5.39162C8.03787 5.51299 8 5.6511 8 5.79176V23.2082C8 23.3489 8.03787 23.487 8.1097 23.6084C8.18154 23.7297 8.28476 23.83 8.40874 23.8988C8.53272 23.9676 8.67298 24.0025 8.8151 23.9999C8.95722 23.9972 9.09606 23.9572 9.21735 23.8838L23.6171 15.1755C23.734 15.1048 23.8307 15.0056 23.8978 14.8872C23.9648 14.769 24 14.6357 24 14.5C24 14.3644 23.9648 14.231 23.8978 14.1127C23.8307 13.9944 23.734 13.8951 23.6171 13.8244Z" stroke="#8A8A88" stroke-width="2" stroke-linecap="round" stroke-linejoin="round"/>
</svg>
