<svg width="30" height="30" viewBox="0 0 30 30" fill="none" xmlns="http://www.w3.org/2000/svg">
<g clip-path="url(#clip0_378_91)">
<mask id="mask0_378_91" style="mask-type:luminance" maskUnits="userSpaceOnUse" x="0" y="0" width="30" height="30">
<path d="M30 0H0V30H30V0Z" fill="white"/>
</mask>
<g mask="url(#mask0_378_91)">
<path d="M15 18.75C17.0711 18.75 18.75 17.0711 18.75 15C18.75 12.9289 17.0711 11.25 15 11.25C12.9289 11.25 11.25 12.9289 11.25 15C11.25 17.0711 12.9289 18.75 15 18.75Z" stroke="#8A8A88" stroke-width="2" stroke-linecap="round" stroke-linejoin="round"/>
<path d="M24.25 18.75C24.0836 19.127 24.034 19.5452 24.1075 19.9507C24.181 20.3562 24.3744 20.7304 24.6625 21.025L24.7375 21.1C24.97 21.3321 25.1544 21.6079 25.2801 21.9114C25.406 22.2149 25.4708 22.5403 25.4708 22.8688C25.4708 23.1973 25.406 23.5226 25.2801 23.8261C25.1544 24.1296 24.97 24.4054 24.7375 24.6375C24.5054 24.87 24.2296 25.0544 23.9261 25.1801C23.6226 25.306 23.2973 25.3708 22.9688 25.3708C22.6402 25.3708 22.3149 25.306 22.0114 25.1801C21.7079 25.0544 21.4321 24.87 21.2 24.6375L21.125 24.5625C20.8304 24.2744 20.4562 24.081 20.0507 24.0075C19.6452 23.934 19.227 23.9836 18.85 24.15C18.4802 24.3085 18.165 24.5715 17.9429 24.9069C17.7207 25.2423 17.6016 25.6352 17.6 26.0375V26.25C17.6 26.913 17.3366 27.5489 16.8677 28.0177C16.3989 28.4866 15.763 28.75 15.1 28.75C14.437 28.75 13.8011 28.4866 13.3323 28.0177C12.8634 27.5489 12.6 26.913 12.6 26.25V26.1375C12.5904 25.7237 12.4564 25.3225 12.2156 24.9859C11.9749 24.6493 11.6384 24.3929 11.25 24.25C10.873 24.0836 10.4548 24.034 10.0493 24.1075C9.64377 24.181 9.2696 24.3744 8.975 24.6625L8.9 24.7375C8.66781 24.97 8.3921 25.1544 8.0886 25.2801C7.7851 25.406 7.45979 25.4708 7.13125 25.4708C6.80271 25.4708 6.4774 25.406 6.1739 25.2801C5.8704 25.1544 5.59469 24.97 5.3625 24.7375C5.13006 24.5054 4.94566 24.2296 4.81985 23.9261C4.69404 23.6226 4.62929 23.2973 4.62929 22.9688C4.62929 22.6402 4.69404 22.3149 4.81985 22.0114C4.94566 21.7079 5.13006 21.4321 5.3625 21.2L5.4375 21.125C5.72567 20.8304 5.91899 20.4562 5.9925 20.0507C6.06603 19.6452 6.0164 19.227 5.85 18.85C5.69155 18.4802 5.42845 18.165 5.09309 17.9429C4.75773 17.7207 4.36474 17.6016 3.9625 17.6H3.75C3.08696 17.6 2.45108 17.3366 1.98224 16.8677C1.51339 16.3989 1.25 15.763 1.25 15.1C1.25 14.437 1.51339 13.8011 1.98224 13.3323C2.45108 12.8634 3.08696 12.6 3.75 12.6H3.8625C4.27624 12.5904 4.6775 12.4564 5.01413 12.2156C5.35074 11.9749 5.60715 11.6384 5.75 11.25C5.9164 10.873 5.96603 10.4548 5.8925 10.0493C5.81899 9.64377 5.62567 9.2696 5.3375 8.975L5.2625 8.9C5.03006 8.66781 4.84566 8.3921 4.71985 8.0886C4.59404 7.7851 4.52929 7.45979 4.52929 7.13125C4.52929 6.80271 4.59404 6.4774 4.71985 6.1739C4.84566 5.8704 5.03006 5.59469 5.2625 5.3625C5.49469 5.13006 5.7704 4.94566 6.0739 4.81985C6.3774 4.69404 6.70271 4.62929 7.03125 4.62929C7.35979 4.62929 7.6851 4.69404 7.9886 4.81985C8.2921 4.94566 8.56781 5.13006 8.8 5.3625L8.875 5.4375C9.1696 5.72567 9.54378 5.91899 9.94926 5.9925C10.3548 6.06603 10.773 6.0164 11.15 5.85H11.25C11.6197 5.69155 11.935 5.42845 12.1571 5.09309C12.3792 4.75773 12.4984 4.36474 12.5 3.9625V3.75C12.5 3.08696 12.7634 2.45108 13.2323 1.98224C13.7011 1.51339 14.337 1.25 15 1.25C15.663 1.25 16.2989 1.51339 16.7677 1.98224C17.2366 2.45108 17.5 3.08696 17.5 3.75V3.8625C17.5016 4.26474 17.6207 4.65772 17.8429 4.99309C18.065 5.32845 18.3802 5.59155 18.75 5.75C19.127 5.9164 19.5452 5.96603 19.9507 5.8925C20.3562 5.81899 20.7304 5.62567 21.025 5.3375L21.1 5.2625C21.3321 5.03006 21.6079 4.84566 21.9114 4.71985C22.2149 4.59404 22.5403 4.52929 22.8688 4.52929C23.1973 4.52929 23.5226 4.59404 23.8261 4.71985C24.1296 4.84566 24.4054 5.03006 24.6375 5.2625C24.87 5.49469 25.0544 5.7704 25.1801 6.0739C25.306 6.3774 25.3708 6.70271 25.3708 7.03125C25.3708 7.35979 25.306 7.6851 25.1801 7.9886C25.0544 8.2921 24.87 8.56781 24.6375 8.8L24.5625 8.875C24.2744 9.1696 24.081 9.54378 24.0075 9.94926C23.934 10.3548 23.9836 10.773 24.15 11.15V11.25C24.3085 11.6197 24.5715 11.935 24.9069 12.1571C25.2423 12.3792 25.6352 12.4984 26.0375 12.5H26.25C26.913 12.5 27.5489 12.7634 28.0177 13.2323C28.4866 13.7011 28.75 14.337 28.75 15C28.75 15.663 28.4866 16.2989 28.0177 16.7677C27.5489 17.2366 26.913 17.5 26.25 17.5H26.1375C25.7352 17.5016 25.3423 17.6207 25.0069 17.8429C24.6715 18.065 24.4085 18.3802 24.25 18.75Z" stroke="#8A8A88" stroke-width="2" stroke-linecap="round" stroke-linejoin="round"/>
</g>
</g>
<defs>
<clipPath id="clip0_378_91">
<rect width="30" height="30" fill="white"/>
</clipPath>
</defs>
</svg>
