<svg viewBox="0 0 24 24" width="24" height="24" data-icon="LockMedium" data-icon-id=":re:" aria-hidden="true" xmlns="http://www.w3.org/2000/svg" fill="none" role="img"><path fill="currentColor" fill-rule="evenodd" d="M7 6a5 5 0 0 1 10 0v1h2a2 2 0 0 1 2 2v9.653a1.96 1.96 0 0 1-1.719 1.955C18.03 20.759 15.492 21 12 21s-6.029-.24-7.281-.392A1.96 1.96 0 0 1 3 18.653V9a2 2 0 0 1 2-2h2zm8 0v1H9V6a3 3 0 1 1 6 0M5 9v9.627c1.2.144 3.638.373 7 .373s5.8-.23 7-.373V9zm6 3v4h2v-4z" clip-rule="evenodd"></path></svg>