<svg viewBox="0 0 24 24" width="24" height="24" data-icon="HexagonExclamationPointMedium" data-icon-id=":rk:" aria-hidden="true" xmlns="http://www.w3.org/2000/svg" fill="none" role="img"><path fill="currentColor" fill-rule="evenodd" d="m2.76 12 4.62 8h9.24l4.62-8-4.62-8H7.38zm-2.02-.5a1 1 0 0 0 0 1l5.2 9c.18.3.5.5.86.5h10.4a1 1 0 0 0 .86-.5l5.2-9a1 1 0 0 0 0-1l-5.2-9a1 1 0 0 0-.86-.5H6.8a1 1 0 0 0-.86.5zm12.76 4a1.5 1.5 0 1 1-3 0 1.5 1.5 0 0 1 3 0m0-8.5h-3l.5 6h2z" clip-rule="evenodd"></path></svg>