<svg viewBox="0 0 24 24" width="24" height="24" data-icon="SubtitlesPencilMedium" data-icon-id=":rn:" aria-hidden="true" xmlns="http://www.w3.org/2000/svg" fill="none" role="img"><path fill="currentColor" fill-rule="evenodd" d="M20.7.3a1 1 0 0 0-1.4 0l-8 8a1 1 0 0 0-.3.7v3a1 1 0 0 0 1 1h3a1 1 0 0 0 .7-.3l8-8a1 1 0 0 0 0-1.4zM13 11V9.41l7-7L21.59 4l-7 7zM2 2h12.76l-2 2H3v12h9.3l.25.17L17 19.13V16h4v-5.76l2-2V17a1 1 0 0 1-1 1h-3v3a1 1 0 0 1-1.55.83L11.7 18H2a1 1 0 0 1-1-1V3a1 1 0 0 1 1-1m3 9h4v2H5zm3-2H5V7h3z" clip-rule="evenodd"></path></svg>